<svg width="38" height="38" viewBox="0 0 38 38" fill="none" xmlns="http://www.w3.org/2000/svg">
  <path d="M18.9609 0.171875C8.64844 0.171875 0.210938 8.60938 0.210938 18.9219C0.210938 29.2344 8.64844 37.6719 18.9609 37.6719C25.6328 37.6719 31.5234 34.1406 34.8438 28.8516C34.9073 28.7511 34.9356 28.6323 34.9244 28.5139C34.9131 28.3956 34.8628 28.2843 34.7815 28.1976C34.7001 28.1109 34.5923 28.0536 34.4749 28.0348C34.3575 28.016 34.2372 28.0368 34.1328 28.0938C33.6757 28.3621 33.1944 28.5871 32.6953 28.7656C29.8203 29.75 28.2344 29.7891 26.2812 29.7031C24.1016 29.6094 21.4453 28.8594 19.5781 27.75C17.7109 26.6406 16.1797 25.0469 15.3516 23.6641C14.5234 22.2812 14.0234 20.5469 14.25 18.3281C14.4766 16.0625 16.5469 14.2188 18.9688 14.2188C21.5859 14.2188 23.7188 16.2969 23.7188 18.9141C23.7188 20.2422 23.0859 21.3906 22.2734 22.3125C22.0938 22.4766 21.6797 23.0703 22.7266 23.875C23.9688 24.8281 26.7578 25.2812 28.9688 25.1719C31.1797 25.0625 33.5859 24.1875 35.2344 22.4531C36.5469 21.0703 37.7188 18.8516 37.7188 16.4062C37.7109 6.63281 28.6484 0.171875 18.9609 0.171875Z" fill="#6248AF"/>
  </svg>  